PathFileType	4	(X/Y/Z)	G:\マイドライブ\biomec\experimentalData\240725\static1.trc
DataRate	CameraRate	NumFrames	NumMarkers	Units	OrigDataRate	OrigDataStartFrame	OrigNumFrames
200.00	200.00	       6	52	mm	200.00	105	       834
Frame#	Time	handR			wrRI			wrRO			elbRI			elbRO			shRF			shRU			shRB			handL			wrLI			wrLO			elbLI			elbLO			shLF			shLU			shLB			toeR			baRI			baRO			heelR			anRI			anRO			knRI			knRO			troR			toeL			baLI			baLO			heelL			anLI			anLO			knLI			knLO			troL			head			earR			earL			clav			c7			ribR			ribL			xiph			ASISR			ASISL			PSISR			PSISL			t8			t11			L1			L3			LS			COX			
		X1	Y1	Z1	X2	Y2	Z2	X3	Y3	Z3	X4	Y4	Z4	X5	Y5	Z5	X6	Y6	Z6	X7	Y7	Z7	X8	Y8	Z8	X9	Y9	Z9	X10	Y10	Z10	X11	Y11	Z11	X12	Y12	Z12	X13	Y13	Z13	X14	Y14	Z14	X15	Y15	Z15	X16	Y16	Z16	X17	Y17	Z17	X18	Y18	Z18	X19	Y19	Z19	X20	Y20	Z20	X21	Y21	Z21	X22	Y22	Z22	X23	Y23	Z23	X24	Y24	Z24	X25	Y25	Z25	X26	Y26	Z26	X27	Y27	Z27	X28	Y28	Z28	X29	Y29	Z29	X30	Y30	Z30	X31	Y31	Z31	X32	Y32	Z32	X33	Y33	Z33	X34	Y34	Z34	X35	Y35	Z35	X36	Y36	Z36	X37	Y37	Z37	X38	Y38	Z38	X39	Y39	Z39	X40	Y40	Z40	X41	Y41	Z41	X42	Y42	Z42	X43	Y43	Z43	X44	Y44	Z44	X45	Y45	Z45	X46	Y46	Z46	X47	Y47	Z47	X48	Y48	Z48	X49	Y49	Z49	X50	Y50	Z50	X51	Y51	Z51	X52	Y52	Z52	

105	0.520	485.18695	294.91110	993.46381	486.07596	383.92206	1022.75378	526.81628	350.19373	1065.87073	569.47455	576.34808	1157.61597	511.48068	552.67627	1188.27039	604.23462	722.30865	1416.59668	542.46826	702.27362	1436.73645	498.92053	712.62695	1392.34253	504.64600	1462.01257	961.15875	500.16876	1373.85510	998.61060	536.39813	1423.65076	1039.13062	546.63403	1196.55579	1146.90405	500.52258	1231.29138	1183.01489	602.15503	1047.90381	1403.94824	543.70630	1071.46448	1424.99329	492.73441	1045.60974	1378.38110	725.67157	730.33234	51.35813	643.43695	772.71259	48.15537	624.73877	651.86133	43.92887	438.72205	729.41266	40.21100	521.71899	770.74591	112.51929	506.70380	677.30432	102.14730	527.66064	796.37964	468.34634	548.98883	692.22186	476.43552	595.25262	708.79517	868.66553	725.72308	1024.85791	53.01977	650.06738	978.06525	50.96899	627.08545	1092.19824	47.35705	438.07227	1031.77698	38.07364	528.06982	985.93365	130.20074	504.05423	1073.40149	104.85024	518.88800	960.74231	471.25775	524.82513	1067.75769	483.78732	572.61951	1053.51465	853.55206	533.59491	887.89032	1703.13318	637.63873	804.08551	1567.64929	643.73834	962.14258	1568.23792	649.50745	888.82330	1393.25940	529.60913	891.23877	1471.05957	632.18530	779.35852	1095.19629	627.89624	999.38306	1092.41321	679.28497	887.64587	1233.77295	656.16669	779.21289	950.32269	643.96857	1000.92908	958.12183	482.36993	820.04443	999.55695	479.28857	943.50983	1000.79602	464.49289	889.03180	1261.79431	479.32758	888.69714	1137.70667	490.13937	890.40308	1080.49133	486.45337	885.75677	1034.11536	469.60168	882.99078	996.42474	439.01331	880.49622	894.47131	
106	0.525	485.16843	294.97131	993.43243	486.05380	383.99231	1022.70691	526.79425	350.24197	1065.82373	569.48126	576.39917	1157.59363	511.44287	552.69971	1188.26477	604.26410	722.32800	1416.57800	542.49164	702.28021	1436.73401	498.94769	712.65704	1392.32251	504.69092	1462.01917	961.16254	500.22662	1373.87292	998.61151	536.44781	1423.67346	1039.11072	546.66650	1196.59033	1146.90076	500.59033	1231.30859	1183.00964	602.21869	1047.93079	1403.97974	543.74493	1071.50012	1424.97888	492.76364	1045.63489	1378.40955	725.68530	730.32928	51.35467	643.43970	772.71204	48.16575	624.78339	651.86340	43.95781	438.69467	729.41034	40.20818	521.67786	770.71558	112.52074	506.70908	677.31396	102.16566	527.64191	796.39551	468.33038	549.01898	692.22339	476.46515	595.29211	708.83167	868.65582	725.71210	1024.85559	53.01540	649.92975	978.29724	50.75480	627.10120	1092.22095	47.34730	438.05811	1031.79956	38.10786	527.54858	985.78046	130.15697	504.08221	1073.41504	104.85394	518.88757	960.76044	471.27722	524.84088	1067.78088	483.77347	572.65192	1053.53088	853.54822	533.66461	887.89636	1703.11841	637.68396	804.09131	1567.62830	643.73425	962.14026	1568.22913	649.52142	888.87964	1393.25171	529.60980	891.26392	1471.04810	632.18774	779.37476	1095.20349	627.91833	999.39386	1092.40088	679.31683	887.68433	1233.77942	656.20618	779.25458	950.33167	643.96399	1000.95569	958.13037	482.38855	820.06512	999.56500	479.29779	943.54309	1000.79968	464.49725	889.04187	1261.81763	479.35889	888.70184	1137.70154	490.15961	890.41827	1080.49780	486.48492	885.76898	1034.12134	469.66437	883.01788	996.40686	439.04114	880.51746	894.47400	
107	0.530	485.13770	295.03040	993.40173	486.00180	384.08307	1022.67487	526.78589	350.29675	1065.76184	569.47333	576.46136	1157.56372	511.44312	552.74353	1188.23206	604.29114	722.34686	1416.56384	542.52014	702.27759	1436.72229	498.97330	712.68127	1392.32251	504.73810	1462.03125	961.13654	500.27072	1373.89978	998.60010	536.49353	1423.70154	1039.08264	546.70471	1196.60950	1146.88904	500.63525	1231.33435	1183.00305	602.21069	1047.94641	1403.94556	543.76355	1071.51196	1424.97449	492.80548	1045.65833	1378.39893	725.71326	730.32111	51.35638	643.44116	772.70703	48.14933	624.76324	651.86920	43.94678	438.68881	729.40942	40.23258	521.67682	770.73169	112.47891	506.71246	677.32715	102.18014	527.67639	796.40424	468.31943	548.99274	692.24615	476.45569	595.31647	708.87183	868.64886	725.70667	1024.86145	53.01125	649.89063	978.29401	50.75868	627.11475	1092.21887	47.34734	438.03976	1031.80310	38.11087	527.69696	986.03888	129.78639	504.08344	1073.42078	104.84224	518.89337	960.76447	471.27744	524.83313	1067.79431	483.78629	572.68109	1053.56177	853.55835	533.71362	887.88751	1703.12488	637.71631	804.09869	1567.59851	643.76068	962.14856	1568.22498	649.55695	888.89075	1393.22351	529.64258	891.24701	1471.06067	632.19080	779.38763	1095.19775	627.95496	999.42560	1092.41785	679.32367	887.74475	1233.77417	656.21655	779.28558	950.31604	644.18250	1001.12866	958.16132	482.42685	820.09143	999.57117	479.34705	943.57788	1000.80035	464.52362	889.07056	1261.80469	479.36197	888.71857	1137.70398	490.17981	890.40656	1080.50171	486.50150	885.79480	1034.11646	469.65906	883.05713	996.42969	439.04794	880.56763	894.48822	
108	0.535	485.09320	295.09390	993.35895	485.97098	384.15814	1022.63519	526.79205	350.35425	1065.72485	569.46771	576.51990	1157.52405	511.43826	552.77924	1188.21716	604.31781	722.37421	1416.54053	542.53137	702.29663	1436.71606	499.00095	712.71112	1392.33521	504.79489	1462.03308	961.13104	500.33420	1373.91797	998.58868	536.56720	1423.72522	1039.05530	546.74847	1196.63623	1146.86877	500.66507	1231.35815	1183.00427	602.27740	1047.95569	1403.94653	543.81018	1071.53760	1424.96753	492.80649	1045.68201	1378.40906	725.71295	730.31744	51.36012	643.43707	772.72363	48.14647	624.75165	651.87775	43.95953	438.69070	729.41522	40.22950	521.70453	770.73254	112.50121	506.69751	677.34216	102.16537	527.65515	796.43127	468.32605	548.98254	692.27808	476.46280	595.32867	708.91150	868.63403	725.71790	1024.85364	53.00324	649.89221	978.28778	50.76703	627.04950	1092.21655	47.37174	438.04886	1031.79358	38.09122	527.70111	986.04803	129.77257	504.09793	1073.41846	104.83068	518.88715	960.78503	471.27805	524.87726	1067.81335	483.77631	572.70319	1053.57849	853.53986	533.57440	887.99158	1703.20898	637.75397	804.11749	1567.56775	643.84100	962.16437	1568.23572	649.59052	888.91486	1393.22107	529.68433	891.29657	1471.03760	632.21033	779.42786	1095.21033	627.95618	999.44379	1092.40869	679.37372	887.75153	1233.76343	656.26581	779.35028	950.30713	644.02094	1001.00977	958.11469	482.43188	820.10736	999.57751	479.34167	943.61011	1000.81030	464.53104	889.07159	1261.81995	479.40768	888.71887	1137.69470	490.20648	890.41223	1080.49158	486.54251	885.81171	1034.09998	469.70374	883.08813	996.42932	439.07425	880.59363	894.50409	
109	0.540	485.06622	295.17416	993.33759	485.93433	384.25787	1022.58954	526.77521	350.41699	1065.66577	569.45300	576.59088	1157.51172	511.44388	552.79767	1188.20691	604.33661	722.39551	1416.52356	542.56439	702.28961	1436.71790	499.01663	712.73547	1392.32361	504.86023	1462.03406	961.11169	500.40277	1373.93823	998.56708	536.62244	1423.74487	1039.04028	546.78162	1196.64783	1146.86890	500.73123	1231.38892	1182.98364	602.30621	1047.96326	1403.94434	543.81750	1071.55115	1424.96033	492.85306	1045.69006	1378.38867	725.70239	730.31458	51.36151	643.42828	772.70801	48.15318	624.73248	651.87000	43.96151	438.68445	729.41962	40.22407	521.72076	770.74298	112.48451	506.67264	677.34509	102.18420	527.65979	796.45209	468.31702	548.98859	692.28522	476.44467	595.36835	708.95172	868.63574	725.69769	1024.85388	53.03000	649.87415	978.30078	50.76553	627.04858	1092.22632	47.36690	438.05615	1031.80237	38.10665	527.53027	985.77441	130.15663	504.11694	1073.41455	104.83492	518.89618	960.80115	471.28082	524.86938	1067.84241	483.77884	572.70459	1053.62891	853.54718	533.59149	887.99866	1703.21252	637.79535	804.12042	1567.53650	643.85651	962.19330	1568.21509	649.60376	888.93878	1393.20251	529.72400	891.32031	1471.02917	632.20526	779.43750	1095.20068	627.95874	999.45984	1092.40112	679.37146	887.74762	1233.72644	656.29907	779.37683	950.28448	644.21637	1001.17938	958.13806	482.47037	820.12793	999.56921	479.38263	943.63806	1000.82019	464.58334	889.07831	1261.82080	479.41986	888.74316	1137.69067	490.25677	890.41931	1080.49683	486.59372	885.83588	1034.07813	469.73227	883.12256	996.43646	439.05484	880.61646	894.51868	
110	0.545	485.07965	295.24295	993.27942	485.92532	384.32834	1022.54266	526.76166	350.47119	1065.61365	569.46588	576.64880	1157.48596	511.41876	552.82721	1188.20105	604.39697	723.31586	1416.61023	542.58081	702.39679	1436.79932	499.03128	712.77417	1392.32715	504.92792	1462.04907	961.09521	500.44250	1373.96716	998.56403	536.67511	1423.76184	1039.01953	546.83026	1196.67175	1146.85583	500.76294	1231.41699	1182.98535	602.33502	1047.96838	1403.93909	543.84058	1071.59106	1424.94385	492.87125	1045.71021	1378.37915	725.70569	730.32794	51.38677	643.43073	772.70752	48.14810	624.73975	651.88068	43.96974	438.67850	729.42670	40.23410	521.69159	770.74066	112.53004	506.69537	677.34052	102.17428	527.64203	796.46985	468.32098	548.99719	692.30170	476.47269	595.38239	709.00629	868.63489	725.69806	1024.86475	53.02088	650.06201	978.07666	50.98111	627.07538	1092.23413	47.34529	438.04105	1031.80652	38.09692	527.88049	985.70129	130.57019	504.07303	1073.40869	104.86932	518.90747	960.79706	471.29865	524.85669	1067.85840	483.79877	572.70544	1053.65442	853.55347	533.67365	888.00159	1703.22754	637.83392	804.14185	1567.52026	643.92188	962.19366	1568.22595	649.68402	888.97028	1393.20398	529.73560	891.34387	1471.02502	632.23596	779.48041	1095.18054	627.98163	999.48102	1092.40601	679.39417	887.78192	1233.70496	656.31909	779.41455	950.28259	644.09515	1001.05945	958.10394	482.49432	820.14319	999.58820	479.39703	943.67139	1000.81439	464.57874	889.09918	1261.82483	479.43134	888.74530	1137.69324	490.24713	890.43231	1080.50488	486.58713	885.85089	1034.07629	469.75970	883.15765	996.42584	439.07419	880.63312	894.52612	
